<?xml version="1.0" encoding="UTF-8" standalone="no"?>
<svg
   xmlns="http://www.w3.org/2000/svg"
   id="bomb"
   viewBox="0 0 500 500">
   <g transform="matrix(1,0,0,0.99922733,-517.70023,53.048135)">
      <path
         d="m 868.90219,21.28613 -24.42225,11.65351 c 9.90112,-8.0631 20.10772,-16.38731 21.75393,-18.24483 1.29026,2.78005 1.29822,2.78097 2.66832,6.59132 z m 1.90782,-27.334656 -22.00898,-16.591823 16.87765,20.395954 z m 43.43359,-47.040629 -32.18602,45.588364 5.91988,4.696675 z M 894.394,9.5900598 953.73135,-2.456199 892.50575,2.433621 Z M 872.18387,10.98606 c 6.23929,35.28613 50.64765,48.53374 29.48587,94.39031 -6.52572,14.14479 -10.99933,17.748 -21.61797,28.60394 l -22.51416,-19.77933 -16.22639,26.35409 c -24.55163,-14.53604 -53.18343,-22.90231 -83.78913,-22.90231 -91.03067,0 -164.82186,73.801 -164.82186,164.81991 0,91.03067 73.79707,164.8248 164.82186,164.8248 91.02871,0 164.82186,-73.79413 164.82186,-164.8248 0,-35.95866 -11.55117,-69.20308 -31.095,-96.29342 l 23.88807,-19.7508 -24.81569,-23.2729 c 1.70423,-1.84642 3.53006,-3.6801 5.48925,-5.5324 13.61528,-12.87887 16.50036,-19.94253 22.59169,-37.950774 6.635,-26.741266 -5.11123,-43.366606 -16.62842,-57.815656 -7.32856,-9.19414 -15.17155,-14.29532 -16.16793,-30.92416 0.82844,-9.397541 -13.86061,-14.165973 -13.42205,0.0535 z"
         id="bomb-path" />
   </g>
</svg>
