<?xml version="1.0" standalone="no"?>
<!DOCTYPE svg PUBLIC "-//W3C//DTD SVG 20010904//EN"
 "http://www.w3.org/TR/2001/REC-SVG-20010904/DTD/svg10.dtd">
<svg version="1.0" xmlns="http://www.w3.org/2000/svg"
 width="700.000000pt" height="700.000000pt" viewBox="0 0 700.000000 700.000000"
 preserveAspectRatio="xMidYMid meet">
<metadata>
Created by potrace 1.11, written by Peter Selinger 2001-2013
</metadata>
<g transform="translate(0.000000,700.000000) scale(0.100000,-0.100000)"
fill="#000000" stroke="none">
<path d="M5254 6828 c-43 -68 -105 -166 -139 -218 -114 -177 -111 -171 -90
-186 31 -23 15 -47 177 266 55 107 109 210 120 228 11 17 18 32 15 32 -2 0
-40 -55 -83 -122z"/>
<path d="M4630 6469 l105 -126 22 19 21 20 -36 31 c-20 18 -39 34 -42 37 -10
10 -135 116 -155 130 -10 8 28 -42 85 -111z"/>
<path d="M5292 6342 l-183 -2 4 -28 c3 -23 8 -27 33 -26 37 1 207 14 259 19
22 3 65 7 95 9 30 3 96 8 145 12 50 4 102 7 118 7 15 0 27 2 27 6 0 6 -195 8
-498 3z"/>
<path d="M4857 6244 c-33 -18 -41 -47 -33 -120 17 -158 61 -276 230 -619 207
-419 229 -486 230 -695 1 -104 -3 -149 -18 -195 -27 -89 -68 -173 -122 -245
-48 -66 -292 -313 -305 -308 -3 2 -40 33 -80 69 -41 37 -92 82 -113 101 l-39
35 -36 -41 c-20 -23 -47 -52 -61 -66 -14 -15 -40 -44 -59 -65 -19 -22 -51 -59
-72 -82 l-39 -43 -47 28 c-141 82 -401 184 -518 203 -5 1 -20 5 -33 10 -19 8
-99 23 -182 34 -178 26 -402 26 -612 0 -110 -13 -366 -81 -453 -119 -16 -8
-41 -17 -55 -21 -72 -22 -424 -220 -450 -254 -3 -3 -23 -19 -45 -36 -110 -81
-289 -262 -381 -385 -291 -387 -438 -822 -438 -1290 0 -99 9 -251 18 -295 2
-11 7 -42 10 -68 9 -57 9 -60 31 -152 50 -210 173 -488 299 -674 115 -171 203
-272 352 -405 116 -104 118 -105 222 -175 188 -127 381 -218 612 -289 40 -13
204 -48 270 -58 25 -3 54 -8 65 -11 39 -9 401 -11 470 -2 110 13 124 16 231
38 158 33 335 95 502 178 84 41 158 80 165 87 7 6 46 33 87 60 285 186 547
489 710 821 61 123 140 332 154 405 2 14 10 48 16 75 35 150 45 256 45 470 0
154 -3 203 -21 337 -12 85 -74 308 -115 414 -52 134 -129 285 -204 400 l-56
87 28 30 c15 17 33 36 38 42 6 6 38 43 72 81 34 38 78 87 98 109 l35 40 -37
33 c-21 18 -58 51 -83 72 -25 22 -72 64 -104 94 l-59 54 112 113 c189 191 286
337 352 529 31 89 33 104 33 230 0 112 -4 150 -23 220 -29 102 -94 256 -174
405 -149 281 -225 452 -257 573 -10 40 -13 57 -26 157 -9 72 -76 111 -137 79z"/>
<path d="M4639 6017 c-15 -12 -59 -44 -98 -72 -39 -27 -71 -51 -71 -53 0 -2 3
-1 8 1 7 4 109 53 217 103 l50 24 -43 0 c-26 0 -41 4 -37 10 9 15 3 12 -26
-13z"/>
</g>
</svg>
