<?xml version="1.0" standalone="no"?>
<!DOCTYPE svg PUBLIC "-//W3C//DTD SVG 20010904//EN"
 "http://www.w3.org/TR/2001/REC-SVG-20010904/DTD/svg10.dtd">
<svg version="1.0" xmlns="http://www.w3.org/2000/svg"
 width="700.000000pt" height="700.000000pt" viewBox="0 0 700.000000 700.000000"
 preserveAspectRatio="xMidYMid meet">
<metadata>
Created by potrace 1.14, written by Peter Selinger 2001-2017
</metadata>
<g transform="translate(0.000000,700.000000) scale(0.100000,-0.100000)"
fill="#000000" stroke="none">
<path d="M5432 6832 c-87 -127 -149 -215 -299 -424 l-34 -47 42 -30 c43 -32
59 -32 59 -1 0 10 3 20 8 22 4 2 23 35 43 73 20 39 61 117 92 175 131 251 176
340 169 340 -4 0 -40 -49 -80 -108z"/>
<path d="M4681 6520 c115 -139 191 -230 194 -230 1 0 17 12 34 28 l32 27 -88
65 c-48 35 -90 67 -93 70 -5 5 -80 62 -110 84 -8 6 5 -14 31 -44z"/>
<path d="M5977 6284 c-1 -1 -38 -5 -82 -9 -44 -3 -96 -8 -115 -10 -19 -2 -78
-7 -130 -10 -52 -4 -111 -8 -130 -10 -19 -2 -79 -7 -133 -10 -150 -11 -143 -7
-127 -64 13 -49 14 -49 143 -22 50 11 106 22 122 25 85 13 495 101 495 106 0
5 -38 8 -43 4z"/>
<path d="M6038 6283 c7 -3 16 -2 19 1 4 3 -2 6 -13 5 -11 0 -14 -3 -6 -6z"/>
<path d="M5003 6215 c-37 -26 -47 -84 -27 -163 31 -126 99 -242 266 -456 53
-67 122 -176 153 -241 90 -191 78 -371 -41 -613 -54 -110 -95 -165 -201 -276
l-80 -83 -29 26 c-16 14 -61 53 -99 86 -68 60 -80 70 -149 132 l-35 33 -44
-68 c-24 -37 -54 -85 -67 -107 -13 -22 -38 -62 -55 -90 -17 -27 -39 -62 -48
-77 l-17 -27 -48 27 c-238 139 -561 243 -866 280 -79 9 -455 9 -524 -1 -97
-13 -127 -18 -202 -33 -79 -16 -186 -45 -258 -71 -23 -8 -48 -16 -55 -17 -35
-8 -209 -85 -306 -137 -431 -230 -786 -600 -992 -1034 -76 -160 -143 -347
-164 -455 -2 -8 -8 -33 -13 -55 -6 -22 -13 -58 -16 -80 -3 -22 -8 -51 -10 -65
-13 -66 -17 -119 -20 -300 -3 -107 0 -226 4 -265 5 -38 11 -88 14 -110 17
-151 90 -408 165 -583 127 -298 336 -585 586 -808 93 -82 232 -188 269 -205
14 -7 26 -15 26 -19 0 -4 8 -10 18 -13 9 -4 40 -20 67 -37 225 -137 527 -241
828 -286 15 -2 42 -6 60 -9 62 -10 392 -13 480 -5 442 45 840 201 1192 469 86
66 109 86 210 186 212 209 364 427 481 685 44 98 109 270 119 315 1 6 7 28 13
50 46 169 76 397 76 585 0 88 -11 267 -18 310 -3 14 -7 42 -10 63 -44 290
-170 617 -341 882 -30 48 -56 90 -58 94 -1 4 54 54 123 111 69 56 143 118 164
136 l39 34 -88 82 c-48 46 -126 119 -172 163 l-85 81 89 89 c151 153 207 243
276 445 43 125 51 175 50 297 -2 208 -79 372 -298 633 -53 63 -108 135 -122
159 -28 46 -63 174 -63 229 0 45 -24 89 -60 107 -37 19 -60 19 -87 0z"/>
<path d="M4840 6017 c-57 -51 -132 -113 -194 -162 -32 -25 -54 -45 -49 -45 6
0 45 17 89 39 43 21 114 55 156 75 l77 37 -16 37 c-22 53 -24 54 -63 19z"/>
</g>
</svg>
